#!OML:ASF E:\motion texture\Top Level 1\Subject 1\Session 1\male.ASF
:FULLY-SPECIFIED
:DEGREES
659
root -42.843 17.9958 2.85514 1364.81 -85.8724 -1365.85
lowerback 4.81608 -4.57992 -4.26565
upperback -1.73048 -6.33066 1.71393
thorax -3.83154 -3.02343 4.63337
lowerneck -21.9797 -0.810306 -3.76536
upperneck 17.4543 -0.845363 4.11149
head 9.13277 -0.190292 1.91716
rclavicle 4.96962e-017 -1.11319e-014
rhumerus -63.4726 1.57862 -70.3622
rradius 48.4605
rwrist 0.0087885
rhand -10.7312 -6.77616
rfingers 7.12502
rthumb 15.2794 -36.1918
lclavicle 4.96962e-017 -1.11319e-014
lhumerus -3.45715 -10.7557 81.3532
lradius 74.7754
lwrist 5.05904
lhand -10.321 8.88687
lfingers 7.12502
lthumb 15.6746 38.272
rfemur -81.657 -7.75791 17.3082
rtibia 77.6401
rfoot 742.066 -7.81095
rtoes 15.838
lfemur 7.99204 -7.58452 -28.8065
ltibia 21.7007
lfoot 1428.56 -5.46487
ltoes -12.3782
660
root -43.0058 17.9759 2.83818 1365.42 -85.826 -1366.13
lowerback 4.50454 -4.59074 -4.28944
upperback -1.81013 -6.33553 1.72303
thorax -3.73501 -3.02763 4.63029
lowerneck -21.9064 -0.830052 -3.79695
upperneck 17.4012 -0.863013 4.11055
head 9.10243 -0.201404 1.91859
rclavicle 1.60022e-014 -6.36111e-015
rhumerus -63.051 1.65213 -70.6849
rradius 48.5205
rwrist -0.0659994
rhand -10.7201 -6.87343
rfingers 7.12502
rthumb 15.2901 -36.2883
lclavicle 1.60022e-014 -6.36111e-015
lhumerus -3.8079 -10.8364 81.5338
lradius 74.615
lwrist 4.9536
lhand -10.2977 8.86707
lfingers 7.12502
lthumb 15.697 38.2504
rfemur -80.5418 -7.71006 16.9901
rtibia 75.6903
rfoot 742.532 -7.35634
rtoes 16.1255
lfemur 8.2171 -7.62794 -28.81
ltibia 21.6919
lfoot 1428.5 -5.53326
ltoes -13.0917
661
root -43.1716 17.9551 2.82058 1366.17 -85.7689 -1366.52
lowerback 4.14307 -4.59983 -4.32506
upperback -1.91531 -6.33723 1.73528
thorax -3.63567 -3.02972 4.63353
lowerneck -21.8493 -0.851032 -3.80464
upperneck 17.402 -0.882996 4.072
head 9.09346 -0.216344 1.90342
rclavicle 2.60905e-015 -7.15625e-015
rhumerus -62.6203 1.72483 -71.0175
rradius 48.6054
rwrist -0.156607
rhand -10.7232 -6.95945
rfingers 7.12502
rthumb 15.2871 -36.3745
lclavicle 2.60905e-015 -7.15625e-015
lhumerus -4.23556 -10.9444 81.7785
lradius 74.3831
lwrist 4.84393
lhand -10.2728 8.84906
lfingers 7.12502
lthumb 15.7209 38.2305
rfemur -79.3211 -7.66418 16.6479
rtibia 73.7306
rfoot 742.982 -7.10035
rtoes 16.6814
lfemur 8.4278 -7.66865 -28.8125
ltibia 21.6521
lfoot 1428.43 -5.60044
ltoes -13.8
662
root -43.3402 17.9334 2.80203 1367.12 -85.7048 -1367.07
lowerback 3.7423 -4.60786 -4.373
upperback -2.04065 -6.33692 1.75169
thorax -3.53363 -3.0304 4.64521
lowerneck -21.7895 -0.874436 -3.81574
upperneck 17.4265 -0.907037 4.03677
head 9.09243 -0.233217 1.88966
rclavicle 6.59468e-014 7.15625e-015
rhumerus -62.1749 1.79172 -71.3564
rradius 48.7123
rwrist -0.255465
rhand -10.7341 -7.02718
rfingers 7.12502
rthumb 15.2766 -36.443
lclavicle 6.59468e-014 7.15625e-015
lhumerus -4.734 -11.0786 82.0814
lradius 74.083
lwrist 4.72303
lhand -10.2414 8.83289
lfingers 7.12502
lthumb 15.7512 38.212
rfemur -77.9869 -7.61406 16.2865
rtibia 71.7589
rfoot 743.428 -6.98454
rtoes 17.4239
lfemur 8.63188 -7.70995 -28.8039
ltibia 21.5804
lfoot 1428.38 -5.67806
ltoes -14.4811
663
root -43.5122 17.9108 2.78256 1368.29 -85.6356 -1367.83
lowerback 3.31018 -4.61474 -4.42787
upperback -2.17807 -6.33426 1.77049
thorax -3.42578 -3.02987 4.66083
lowerneck -21.7317 -0.90257 -3.82751
upperneck 17.4714 -0.938399 4.00276
head 9.09911 -0.253532 1.87564
rclavicle 1.93815e-014 -1.03368e-014
rhumerus -61.7167 1.84565 -71.698
rradius 48.8376
rwrist -0.352629
rhand -10.7406 -7.08868
rfingers 7.12502
rthumb 15.2704 -36.505
lclavicle 1.93815e-014 -1.03368e-014
lhumerus -5.29647 -11.2456 82.4373
lradius 73.7169
lwrist 4.60023
lhand -10.2221 8.81668
lfingers 7.12502
lthumb 15.7698 38.1943
rfemur -76.5259 -7.56015 15.9064
rtibia 69.7724
rfoot 743.879 -6.98172
rtoes 18.3537
lfemur 8.85211 -7.75241 -28.7799
ltibia 21.4694
lfoot 1428.34 -5.77968
ltoes -15.1501
664
root -43.6878 17.8871 2.76209 1369.74 -85.5636 -1368.87
lowerback 2.86712 -4.6222 -4.48671
upperback -2.32583 -6.33219 1.7921
thorax -3.32176 -3.02936 4.68127
lowerneck -21.6631 -0.934045 -3.84684
upperneck 17.528 -0.975771 3.98125
head 9.10833 -0.27599 1.86644
rclavicle 7.8023e-015 -7.95139e-016
rhumerus -61.2499 1.88656 -72.0394
rradius 48.9732
rwrist -0.442055
rhand -10.746 -7.14877
rfingers 7.12502
rthumb 15.2651 -36.5655
lclavicle 7.8023e-015 -7.95139e-016
lhumerus -5.93018 -11.4475 82.842
lradius 73.2909
lwrist 4.47486
lhand -10.2158 8.80004
lfingers 7.12502
lthumb 15.7759 38.1772
rfemur -74.9212 -7.49932 15.5129
rtibia 67.7647
rfoot 744.367 -7.05769
rtoes 19.3245
lfemur 9.11819 -7.80601 -28.7392
ltibia 21.3059
lfoot 1428.32 -5.90756
ltoes -15.8097
665
root -43.8673 17.8622 2.74028 1371.51 -85.5046 -1370.23
lowerback 2.41783 -4.62898 -4.53595
upperback -2.47854 -6.32839 1.82058
thorax -3.21985 -3.02817 4.70328
lowerneck -21.5889 -0.969965 -3.88453
upperneck 17.5905 -1.02134 3.9921
head 9.11928 -0.300013 1.87038
rclavicle 6.21202e-014 -6.36111e-015
rhumerus -60.7747 1.90821 -72.3793
rradius 49.1181
rwrist -0.522988
rhand -10.7698 -7.18303
rfingers 7.12502
rthumb 15.2422 -36.6015
lclavicle 6.21202e-014 -6.36111e-015
lhumerus -6.63641 -11.6844 83.2937
lradius 72.8144
lwrist 4.34257
lhand -10.2267 8.78331
lfingers 7.12502
lthumb 15.7653 38.1613
rfemur -73.1678 -7.41545 15.126
rtibia 65.7329
rfoot 744.933 -7.19793
rtoes 20.3241
lfemur 9.43025 -7.86236 -28.6534
ltibia 21.0992
lfoot 1428.33 -6.07499
ltoes -16.4535
666
root -44.051 17.8359 2.71706 1373.66 -85.4682 -1372.01
lowerback 1.96765 -4.63644 -4.56201
upperback -2.62771 -6.32427 1.85752
thorax -3.11528 -3.02758 4.7211
lowerneck -21.5281 -1.00995 -3.91206
upperneck 17.6664 -1.07542 4.00104
head 9.13754 -0.327485 1.87099
rclavicle -2.65874e-015 -1.59028e-015
rhumerus -60.2845 1.90161 -72.7162
rradius 49.2694
rwrist -0.592923
rhand -10.7983 -7.20113
rfingers 7.12502
rthumb 15.2148 -36.6217
lclavicle -2.65874e-015 -1.59028e-015
lhumerus -7.40484 -11.9556 83.7824
lradius 72.2904
lwrist 4.21496
lhand -10.2508 8.77128
lfingers 7.12502
lthumb 15.7421 38.1511
rfemur -71.2531 -7.29518 14.759
rtibia 63.6781
rfoot 745.577 -7.39881
rtoes 21.3273
lfemur 9.79385 -7.91843 -28.505
ltibia 20.8612
lfoot 1428.37 -6.28882
ltoes -17.0894
667
root -44.2396 17.8082 2.69238 1376.23 -85.4462 -1374.23
lowerback 1.52486 -4.64501 -4.56753
upperback -2.77669 -6.32131 1.90025
thorax -3.01609 -3.02797 4.73444
lowerneck -21.4622 -1.0538 -3.94092
upperneck 17.75 -1.13757 4.02077
head 9.15804 -0.357749 1.8745
rclavicle -6.90777e-015 3.18055e-015
rhumerus -59.7887 1.87321 -73.0549
rradius 49.4157
rwrist -0.664724
rhand -10.8414 -7.20938
rfingers 7.12502
rthumb 15.1733 -36.6331
lclavicle -6.90777e-015 3.18055e-015
lhumerus -8.25037 -12.263 84.3079
lradius 71.7268
lwrist 4.09921
lhand -10.2889 8.7687
lfingers 7.12502
lthumb 15.7055 38.1514
rfemur -69.1665 -7.13541 14.4157
rtibia 61.5981
rfoot 746.32 -7.64537
rtoes 22.3213
lfemur 10.2162 -7.96876 -28.2974
ltibia 20.5985
lfoot 1428.46 -6.55808
ltoes -17.7289
668
root -44.4334 17.7788 2.66602 1379.21 -85.4461 -1376.89
lowerback 1.07971 -4.65282 -4.54519
upperback -2.92246 -6.31653 1.95175
thorax -2.91441 -3.0283 4.74117
lowerneck -21.3906 -1.10218 -3.97404
upperneck 17.8363 -1.20856 4.05525
head 9.17901 -0.39089 1.88261
rclavicle -4.4329e-014 7.95139e-015
rhumerus -59.2827 1.81483 -73.391
rradius 49.551
rwrist -0.740533
rhand -10.9016 -7.18925
rfingers 7.12502
rthumb 15.1153 -36.6173
lclavicle -4.4329e-014 7.95139e-015
lhumerus -9.16968 -12.6028 84.8687
lradius 71.1252
lwrist 4.00375
lhand -10.3279 8.80613
lfingers 7.12502
lthumb 15.6679 38.1917
rfemur -66.926 -6.92409 14.1223
rtibia 59.5142
rfoot 747.16 -7.93322
rtoes 23.3151
lfemur 10.6806 -8.00602 -28.0138
ltibia 20.3331
lfoot 1428.59 -6.88354
ltoes -18.3611
